<svg width="80" height="35" viewBox="0 0 80 35" fill="none" xmlns="http://www.w3.org/2000/svg">
<path fill-rule="evenodd" clip-rule="evenodd" d="M50.6762 16.0262C54.4018 18.9609 60.9449 25.6522 54.9582 29.807C51.1484 32.4501 44.5459 32.6399 41.0538 29.3015C36.6772 25.1173 40.2959 19.3606 43.8963 16.1695C44.9324 15.2505 46.0483 14.4129 47.2155 13.6358C48.4128 14.3665 49.5731 15.1573 50.6762 16.0262ZM79.4384 1.7687C68.724 1.86521 57.1637 4.47824 47.7179 10.0017C45.5472 8.82734 43.402 7.8791 41.5511 7.17936C30.7981 3.11538 17.4307 2.16781 6.25042 4.98835C5.02873 5.297 4.92011 6.81844 5.61963 7.58209C5.18192 7.2037 4.74874 6.8198 4.32012 6.43038C5.3804 5.35368 6.57575 4.47766 7.97454 3.76376C8.82945 3.3278 9.86152 3.11087 10.6679 2.61711C11.1484 2.32314 11.0553 1.93248 11.6224 1.68341C11.8033 1.60398 11.8423 1.3149 11.6108 1.26543C10.9768 1.13045 10.6863 0.66623 10.0465 0.557829C9.03876 0.386639 7.35693 0.967272 6.44697 1.31223C4.18071 2.17132 2.22511 3.61408 0.57396 5.36853C-0.115434 6.10152 0.0273317 7.15528 0.665397 7.8547C2.22935 9.56954 4.03681 11.0626 5.91546 12.419C7.54338 13.5937 9.31684 15.0335 11.3177 15.4141C12.8863 15.7134 13.8781 13.8654 12.7611 12.7221C11.3984 11.3266 9.44804 10.5327 7.86615 9.38483C7.18787 8.89278 6.5442 8.36682 5.91133 7.82864C6.13846 7.96636 6.41356 8.04132 6.73493 8.01816C17.1179 7.26906 26.9656 6.27792 37.1601 9.25218C39.6643 9.98173 42.1164 10.9298 44.4531 12.1031C44.2571 12.2402 44.0535 12.3699 43.8585 12.5102C37.4588 17.1345 31.6847 27.2177 40.4243 32.8736C46.627 36.889 60.392 35.2338 60.6527 25.941C60.8195 20.0036 55.9676 15.1267 50.5245 11.6534C53.5005 10.0441 56.6619 8.72247 59.6924 7.49481C66.0093 4.93465 72.7249 3.26824 79.4485 2.20231C79.7151 2.15982 79.7266 1.7659 79.4384 1.7687Z" fill="black"/>
</svg>
