<svg width="43" height="79" viewBox="0 0 43 79" fill="none" xmlns="http://www.w3.org/2000/svg">
<path fill-rule="evenodd" clip-rule="evenodd" d="M24.0676 31.245C27.6854 28.1782 35.5455 23.0984 38.4251 29.7925C40.2567 34.0523 39.1282 40.5603 35.1613 43.3179C30.1895 46.7738 25.2686 42.0813 22.8582 37.9177C22.1639 36.7193 21.5652 35.459 21.036 34.1604C21.9905 33.1326 22.9966 32.153 24.0676 31.245ZM15.8231 0.219959C13.7844 10.7391 14.0434 22.5881 17.5756 32.9446C15.9926 34.838 14.6362 36.7515 13.5819 38.426C7.45835 48.1546 3.86827 61.0656 4.4063 72.5836C4.46552 73.8423 5.93488 74.2517 6.82252 73.7182C6.36455 74.0718 5.90208 74.4199 5.43512 74.7624C4.59108 73.509 3.9706 72.1631 3.5495 70.6502C3.29249 69.7256 3.28539 68.671 2.96208 67.7824C2.76964 67.2531 2.36828 67.2665 2.2371 66.6612C2.19529 66.4681 1.91976 66.3723 1.82517 66.5894C1.56667 67.1838 1.05391 67.376 0.8203 67.9814C0.451886 68.9349 0.686036 70.6987 0.842908 71.6591C1.23358 74.051 2.25809 76.2547 3.64866 78.2221C4.22972 79.0437 5.2908 79.1136 6.10326 78.6275C8.09515 77.4363 9.91818 75.9623 11.6214 74.3914C13.0967 73.0299 14.8609 71.5786 15.6322 69.6936C16.2378 68.216 14.6243 66.8762 13.2815 67.7431C11.6427 68.8007 10.4763 70.5539 9.03645 71.8756C8.4192 72.4423 7.77562 72.9684 7.1222 73.4815C7.30239 73.2863 7.43062 73.0316 7.47191 72.7121C8.80509 62.3879 9.79451 52.54 14.739 43.1418C15.9525 40.833 17.3698 38.6187 18.9849 36.5624C19.0802 36.7817 19.1668 37.0072 19.2654 37.2262C22.5229 44.4185 31.2546 52.0845 38.5374 44.646C43.7073 39.367 44.826 25.5481 35.7711 23.4423C29.9858 22.0968 24.2406 25.8805 19.753 30.523C18.7685 27.2862 18.1028 23.9249 17.5031 20.7107C16.2519 14.0106 15.9559 7.09763 16.25 0.296366C16.2615 0.0266818 15.8777 -0.063025 15.8231 0.219959Z" fill="black"/>
</svg>
