<svg width="38" height="42" viewBox="0 0 38 42" fill="none" xmlns="http://www.w3.org/2000/svg">
<path d="M3.62823 40.5151C3.60979 40.8371 3.75089 41.1476 4.0056 41.3454C4.26031 41.5433 4.59603 41.6032 4.90347 41.5057L16.4924 37.8303C16.686 37.7689 16.8558 37.6488 16.9783 37.4866L35.7992 12.5691C36.0064 12.2947 36.0548 11.9317 35.9265 11.6126C34.6966 8.55186 32.3374 6.30593 29.8328 4.85731C27.3419 3.41664 24.6056 2.70589 22.5097 2.81573C22.2094 2.83147 21.9329 2.98414 21.7597 3.22991L4.5106 27.6969C4.40505 27.8466 4.34356 28.0229 4.33309 28.2058L3.62823 40.5151Z" fill="#B3B3B3"/>
<path d="M2.85215 26.1237C2.79938 26.1986 2.76863 26.2867 2.7634 26.3782L2.05854 38.6875C2.04932 38.8485 2.11987 39.0037 2.24722 39.1027C2.37458 39.2016 2.54244 39.2316 2.69616 39.1828L14.285 35.5074C14.3819 35.4766 14.4668 35.4166 14.528 35.3355L33.3489 10.418C33.4525 10.2808 33.4767 10.0993 33.4126 9.93974C32.2331 7.00462 29.9631 4.83429 27.5283 3.42602C25.1003 2.02173 22.4574 1.34581 20.4762 1.44964C20.3261 1.45751 20.1878 1.53384 20.1012 1.65673L2.85215 26.1237Z" fill="white" stroke="black" stroke-width="0.980446" stroke-linejoin="round"/>
<path d="M20.5034 1.93919L3.25433 26.4062C5.43736 26.6906 10.6704 28.8156 14.1383 35.0401L32.9592 10.1225C30.7011 4.50353 24.2362 1.74356 20.5034 1.93919Z" fill="#FF5757"/>
<path d="M13.7096 35.2753C13.7895 35.4213 13.9379 35.5168 14.1039 35.529C14.2698 35.5412 14.4306 35.4683 14.5309 35.3356L30.284 14.4796C30.3922 14.3363 30.4134 14.1454 30.3394 13.9819C29.6819 12.5305 28.268 10.3957 26.1409 8.64044C24.0074 6.87985 21.1362 5.48584 17.5832 5.57573C17.4282 5.57965 17.2842 5.65664 17.1949 5.78333L2.85507 26.1238C2.75663 26.2634 2.73798 26.4442 2.80585 26.601C2.87372 26.7577 3.0183 26.8679 3.18748 26.8917C5.27162 27.1847 10.4234 29.2654 13.7096 35.2753Z" fill="#F8D044" stroke="black" stroke-width="0.980446" stroke-linejoin="round"/>
<path d="M2.89957 32.5608L2.54714 38.7155L8.34158 36.8777C6.43809 34.2776 3.92045 32.9164 2.89957 32.5608Z" fill="black"/>
<path d="M12.8534 33.389L29.0023 11.9327" stroke="black" stroke-width="0.980446" stroke-linecap="round" stroke-linejoin="round"/>
<path d="M7.54982 28.7582L22.6833 6.73382" stroke="black" stroke-width="0.980446" stroke-linecap="round" stroke-linejoin="round"/>
</svg>
