<svg width="46" height="39" viewBox="0 0 46 39" fill="none" xmlns="http://www.w3.org/2000/svg">
<path d="M41.034 25.8422L41.4162 26.1513C41.5036 26.0432 41.5412 25.9031 41.5195 25.7657L41.034 25.8422ZM41.034 25.8422C41.4162 26.1513 41.416 26.1515 41.4159 26.1517L41.4153 26.1524L41.4136 26.1545L41.4076 26.1618L41.3856 26.1886C41.3664 26.2117 41.3384 26.2451 41.3018 26.2882C41.2285 26.3744 41.1205 26.499 40.9795 26.6557C40.6977 26.9689 40.2835 27.4108 39.7501 27.9301C38.6842 28.9678 37.1378 30.3192 35.216 31.5721C31.379 34.0735 25.9873 36.2173 19.9269 34.5934C13.8666 32.9695 10.2691 28.4171 8.19685 24.3323C7.15896 22.2864 6.49547 20.3429 6.09123 18.9112C5.88895 18.1948 5.75116 17.6051 5.66368 17.1928C5.61993 16.9866 5.58874 16.8248 5.56834 16.7135C5.55814 16.6578 5.55063 16.6148 5.5456 16.5853L5.53989 16.5511L5.53837 16.5418L5.53794 16.5391L5.5378 16.5382C5.53776 16.5379 5.53772 16.5377 6.02319 16.4611M41.034 25.8422C41.5195 25.7657 41.5195 25.7655 41.5194 25.7652L41.5193 25.7643L41.5189 25.7616L41.5173 25.7523L41.5116 25.7181C41.5066 25.6885 41.4991 25.6455 41.4889 25.5899C41.4685 25.4786 41.4373 25.3167 41.3935 25.1106C41.3061 24.6983 41.1683 24.1086 40.966 23.3922C40.5618 21.9605 39.8983 20.017 38.8604 17.971C36.7882 13.8863 33.1907 9.33385 27.1303 7.70998C21.07 6.08611 15.6782 8.22987 11.8412 10.7313C9.91944 11.9842 8.37306 13.3356 7.30715 14.3733C6.77377 14.8926 6.35957 15.3344 6.07769 15.6477C5.93672 15.8044 5.82877 15.929 5.75546 16.0151C5.71881 16.0582 5.69081 16.0917 5.67167 16.1148L5.64963 16.1415L5.64364 16.1489L5.64192 16.151L5.64137 16.1517C5.64118 16.1519 5.64104 16.1521 6.02319 16.4611M6.02319 16.4611L5.53772 16.5377C5.51606 16.4003 5.5536 16.2602 5.64104 16.1521L6.02319 16.4611Z" fill="#B3B3B3" stroke="#B3B3B3" stroke-width="0.98294" stroke-linejoin="round"/>
<path d="M39.511 23.2114L39.8931 23.5204C39.9806 23.4123 40.0181 23.2722 39.9964 23.1348L39.511 23.2114ZM39.511 23.2114C39.8931 23.5204 39.893 23.5206 39.8928 23.5208L39.8922 23.5215L39.8905 23.5236L39.8845 23.531L39.8625 23.5577C39.8433 23.5808 39.8153 23.6143 39.7787 23.6574C39.7054 23.7435 39.5974 23.8681 39.4565 24.0248C39.1746 24.3381 38.7604 24.7799 38.227 25.2992C37.1611 26.3369 35.6147 27.6884 33.6929 28.9412C29.8559 31.4426 24.4642 33.5864 18.4038 31.9625C12.3435 30.3387 8.74599 25.7862 6.67378 21.7015C5.63588 19.6556 4.9724 17.712 4.56816 16.2803C4.36588 15.5639 4.22809 14.9742 4.14061 14.5619C4.09686 14.3558 4.06567 14.1939 4.04527 14.0826C4.03507 14.027 4.02756 13.984 4.02253 13.9544L4.01682 13.9202L4.0153 13.9109L4.01487 13.9082L4.01473 13.9073C4.01468 13.907 4.01465 13.9068 4.50012 13.8303M39.511 23.2114C39.9964 23.1348 39.9964 23.1346 39.9964 23.1343L39.9962 23.1335L39.9958 23.1307L39.9943 23.1214L39.9885 23.0872C39.9835 23.0577 39.976 23.0147 39.9658 22.959C39.9454 22.8478 39.9142 22.6859 39.8705 22.4797C39.783 22.0675 39.6452 21.4777 39.4429 20.7613C39.0387 19.3296 38.3752 17.3861 37.3373 15.3402C35.2651 11.2554 31.6676 6.70299 25.6072 5.07912C19.5469 3.45525 14.1551 5.59901 10.3182 8.10043C8.39637 9.35329 6.84999 10.7047 5.78408 11.7425C5.2507 12.2617 4.8365 12.7036 4.55462 13.0168C4.41365 13.1735 4.30569 13.2981 4.23239 13.3843C4.19573 13.4274 4.16774 13.4609 4.1486 13.4839L4.12656 13.5107L4.12057 13.518L4.11884 13.5201L4.1183 13.5208C4.11811 13.521 4.11796 13.5212 4.50012 13.8303M4.50012 13.8303L4.01465 13.9068C3.99299 13.7695 4.03053 13.6294 4.11796 13.5212L4.50012 13.8303Z" fill="#44E2F8" stroke="black" stroke-width="0.98294" stroke-linejoin="round"/>
<path d="M19.9116 27.1258C24.441 28.1377 28.9355 24.9318 30.0194 20.08C31.1033 15.2281 28.4004 10.4144 23.8709 9.4025C19.3415 8.39062 14.847 11.5964 13.7631 16.4483C12.6791 21.3002 15.3821 26.1139 19.9116 27.1258Z" fill="white" stroke="black" stroke-width="0.98294" stroke-linecap="round" stroke-linejoin="round"/>
<path d="M20.7311 23.2103C23.6213 23.856 26.4787 21.9666 27.1356 19.026C27.7925 16.0855 26.0108 13.1597 23.1207 12.5141C20.2305 11.8684 17.3731 13.7578 16.7162 16.6983C16.0593 19.6389 17.8409 22.5646 20.7311 23.2103Z" fill="#FC75FF" stroke="black" stroke-width="0.98294" stroke-linecap="round" stroke-linejoin="round"/>
<ellipse cx="21.7236" cy="17.3936" rx="2.40937" ry="2.47987" transform="rotate(12.5931 21.7236 17.3936)" fill="black"/>
</svg>
