<svg width="102" height="111" viewBox="0 0 102 111" fill="none" xmlns="http://www.w3.org/2000/svg">
<path fill-rule="evenodd" clip-rule="evenodd" d="M83.6546 72.1218C82.2112 68.5157 81.1224 67.0483 79.2463 65.9723C77.4914 64.9659 75.0267 64.2485 71.5263 63.9439C67.9004 63.7817 67.562 61.9521 66.2907 59.1053C65.9165 58.2485 64.6006 58.1775 64.1287 58.8908C64.0396 58.8165 63.9481 58.7497 63.8546 58.6908C63.8754 58.2564 63.0999 57.1192 63.0682 56.7104C62.7367 52.4433 61.075 50.4934 57.5113 50.1488C56.7363 50.0738 51.6098 50.6324 50.902 50.9301C47.8076 52.2313 45.0122 55.4553 45.9335 58.7855C45.0961 60.2316 44.2139 61.1621 42.7146 61.7867C40.3343 62.4063 45.9741 96.5281 52.8277 116.522C55.7683 125.101 96.9525 104.538 94.4345 100.377C94.6062 99.532 93.9881 98.708 94.1075 97.8433C94.1939 97.2175 94.5828 96.9132 94.7175 96.2872C94.9071 95.4063 94.4368 94.3181 93.99 93.5019C93.7971 93.0913 94.1285 92.5797 94.1807 92.1285C94.4299 90.0001 93.2734 90.3341 92.2449 89.0655C92.257 89.0596 92.3512 88.047 92.3508 88.0521C92.3904 87.3327 91.948 86.4748 91.5876 85.9251C91.3441 85.5535 90.9 85.3586 90.4965 85.457C90.7282 84.0042 91.0993 82.7724 91.4861 81.3517C92.171 78.847 92.7932 76.2389 93.9396 73.9038C94.4091 72.9477 93.8335 72.1982 92.882 72.26C89.8024 72.4602 86.7245 72.4104 83.6546 72.1218Z" fill="white"/>
<path fill-rule="evenodd" clip-rule="evenodd" d="M45.8098 61.4683L68.4516 62.4961L79.2472 65.9718L81.0738 67.0372L73.4744 85.7236L58.6276 90.4598L56.0524 101.02L58.3067 112.259L82.6612 106.117L93.1672 103.473L96.9821 113.273L97.0665 117.497L96.6801 119.694L71.151 130.248C71.151 130.248 57.5136 130.681 55.126 130.989C52.7384 131.297 35.4572 135.295 35.4572 135.295L31.351 135.385C31.351 135.385 21.1709 127.098 19.3472 123.916C17.5236 120.734 11.8811 100.691 11.8811 100.691L11.8069 97.5095L16.978 76.588C16.978 76.588 17.8907 75.5158 18.9878 73.7492C20.085 71.9827 45.8098 61.4683 45.8098 61.4683Z" fill="#9DDADB"/>
<path fill-rule="evenodd" clip-rule="evenodd" d="M89.594 85.0748C87.6063 85.4347 85.6646 86.1689 83.9659 87.2643C83.2709 87.713 82.6657 88.3095 82.5775 89.1736C82.5335 89.6147 82.6149 90.0542 82.7236 90.48C82.8057 90.8025 82.8697 91.2195 83.183 91.4046C83.2364 91.4358 83.292 91.4578 83.3488 91.4718C82.72 91.8593 82.1309 92.3034 81.614 92.7493C81.1416 93.1569 80.6786 93.7508 80.5167 94.3742C80.4881 94.3094 80.4601 94.2492 80.4326 94.1921C79.8715 93.0438 79.1188 92.1413 78.0479 91.6073C77.8834 91.2139 76.4558 89.6137 75.3487 89.8239C74.1362 90.0534 73.1651 90.2695 72.1327 90.9738C71.7289 91.017 71.3278 91.0744 70.9329 91.1433C70.8647 91.1543 70.88 91.2467 70.9461 91.2459C71.2736 91.2453 71.6017 91.2488 71.9308 91.2602C72.7126 91.284 73.4963 91.3409 74.2683 91.4376C75.1945 91.5538 76.1516 91.6669 77.0415 91.9638C78.7675 92.5412 80.0385 94.4685 80.0632 96.2852C80.0669 96.5831 80.0677 97.4851 79.6485 97.4461C79.2943 97.4133 79.0648 96.7125 78.9101 96.462C78.4967 95.7973 77.8567 95.4109 77.12 95.1885C76.2548 94.9265 75.3475 94.7911 74.4625 94.6115C73.9613 94.509 73.46 94.4064 72.9578 94.3052C72.4438 94.2 71.9458 94.0274 71.4368 94.2131C71.1293 94.3258 71.1416 94.7079 71.3472 94.9014C71.6602 95.1964 72.0744 95.2416 72.4815 95.3271C73.0189 95.4395 73.5552 95.5522 74.0914 95.6646C74.9204 95.8381 75.7816 95.9637 76.5987 96.2016L76.5817 96.2599C76.5164 96.2504 76.4506 96.3228 76.4728 96.3985C76.6808 97.0976 76.9485 97.9023 76.8619 98.6406C76.794 99.226 76.3772 99.9183 75.709 99.835C75.7986 99.7292 75.8155 99.5644 75.728 99.4253C75.4012 98.911 71.7674 97.1831 71.5718 98.0241C71.5656 98.054 71.5991 98.071 71.6229 98.0635C71.871 97.9775 72.3542 98.3572 72.5761 98.4689C72.8964 98.6296 73.2206 98.7851 73.5384 98.9517C73.8861 99.1335 74.2275 99.3273 74.5622 99.5298C74.8251 99.6889 75.0305 99.8631 75.3165 99.924C75.1819 100.011 75.0845 100.152 75.057 100.321C74.988 100.76 74.7959 101.149 74.4061 101.389C73.9974 101.639 73.4927 101.58 73.042 101.686C72.4276 101.829 71.9228 102.195 71.5238 102.677C70.6862 103.689 70.4106 105.318 69.1327 105.91C68.3694 106.263 67.4661 106.219 66.6458 106.21C65.7299 106.199 64.8407 106.212 63.9517 106.461C63.1007 106.7 62.3194 107.106 61.5743 107.575C60.8758 108.014 60.1049 108.508 59.5121 109.105C59.3224 108.704 59.1321 108.308 58.9731 107.895C58.5979 106.916 58.3327 105.905 58.1667 104.872C58.0096 103.888 57.9367 102.889 57.8946 101.894C57.8733 101.398 57.8764 100.9 57.855 100.404C57.8499 100.279 57.855 100.143 57.8545 100.009C58.9414 99.1627 60.1087 98.4714 61.284 97.7632C61.2873 97.7616 61.2903 97.7589 61.2935 97.7574C61.3298 97.7347 61.3652 97.7134 61.4017 97.6919C61.4003 97.6897 61.3989 97.6877 61.3964 97.6857C61.5276 97.5802 61.6119 97.4514 61.6547 97.3135C63.2966 95.891 64.5877 94.0717 65.4621 92.0311C65.8286 91.176 66.1735 90.2933 66.6973 89.5178C67.2548 88.6907 67.9736 88.1491 68.9042 87.7956C69.9918 87.3816 71.1276 87.0711 72.2658 86.831C72.8873 86.7004 73.5791 86.5325 74.2639 86.4476C74.7411 86.3893 75.2131 86.3699 75.6567 86.4327C76.3138 86.5251 76.7468 86.9597 77.2082 87.3959C77.6493 87.8148 78.0884 88.235 78.5068 88.677C78.9029 89.0958 79.2825 89.5327 79.6231 89.9981C79.8274 90.2769 80.0207 90.5663 80.191 90.8684C80.2508 90.9753 80.3269 91.0955 80.3696 91.2089C80.4124 91.3234 80.3777 91.4548 80.5102 91.4377C79.9649 91.5158 79.7776 92.9249 80.3164 92.8228C81.0742 92.6799 81.3398 91.7151 81.0855 90.9224C80.6316 89.5081 78.9645 87.9444 78.6316 87.6105C77.8957 86.873 77.1079 85.8886 76.05 85.638C76.035 85.6343 76.0188 85.6309 76.0039 85.6282C76.2616 85.3122 76.4503 84.9491 76.6284 84.5816C76.8118 84.2034 77.0328 83.7687 77.0545 83.3451C77.0679 83.0753 76.7208 82.9674 76.5949 83.2182C76.4121 83.584 76.3579 84.0241 76.2367 84.4157C76.113 84.813 75.949 85.1944 75.8323 85.5943C75.4181 85.5232 74.9804 85.5226 74.5399 85.5604C74.9962 84.7407 75.7545 83.1752 75.8443 82.9751C76.2566 82.0489 76.6402 81.0997 77.0014 80.152C77.3917 79.1255 77.7031 78.0687 78.07 77.034C78.2781 76.4474 78.4879 75.8558 78.7291 75.2817C78.8125 75.0846 78.9036 74.8866 79.0123 74.7032C79.0334 74.6669 79.0619 74.6352 79.0877 74.6003C79.1195 74.5771 79.1521 74.5516 79.1705 74.5381C79.336 74.4124 79.3682 74.1659 79.4744 73.9984C79.6439 73.7286 79.8764 73.6695 80.1783 73.627C80.8219 73.5372 81.472 73.4791 82.1177 73.4137C83.0669 73.3182 84.0164 73.2338 84.9676 73.1615C85.2554 73.14 85.5421 73.1187 85.8302 73.0995C87.2148 73.004 88.6015 72.9337 89.9881 72.8884C91.2148 72.8478 92.451 72.8802 93.6755 72.8141C92.5369 76.9274 91.2103 80.9931 89.6258 84.9563C89.6097 84.9965 89.599 85.036 89.594 85.0748ZM81.7798 96.3019C81.5306 96.4576 81.293 96.6419 81.0757 96.8451C81.0808 96.5718 81.0543 96.2878 81.0066 96.0056C81.2315 96.192 81.4999 96.2808 81.7798 96.3019ZM92.2203 88.1317C92.2018 88.1362 92.1854 88.1484 92.179 88.1683C91.9102 88.9716 92.1724 89.796 92.8472 90.3115C93.2005 90.58 93.9286 90.8406 93.972 91.3511C94.0062 91.7641 93.6038 92.1661 93.4566 92.5296C93.3197 92.8681 93.2982 93.2232 93.4847 93.5471C93.7233 93.9616 94.2546 94.0703 94.4845 94.4783C94.7758 94.996 94.5021 95.7013 94.3119 96.2093C94.1348 96.6799 93.8891 97.1593 93.7484 97.6509C92.493 98.521 89.6036 100.18 89.2451 100.298C88.8084 100.443 88.3699 100.584 87.9295 100.719C87.0847 100.981 86.2364 101.231 85.3837 101.466C84.8982 101.599 84.4116 101.732 83.923 101.85C83.4964 101.952 83.0167 102.078 82.6259 101.797C81.838 101.23 82.0897 100.077 82.4487 99.355C82.4559 99.3408 82.4543 99.3285 82.4495 99.3179C82.8562 99.1656 83.2597 98.9968 83.6665 98.8624C84.4489 98.6043 85.2399 98.3699 86.0339 98.1497C87.6653 97.6977 89.3182 97.3251 90.9686 96.9517C91.3774 96.8585 91.2977 96.2069 90.8845 96.2995C88.5124 96.8289 86.1269 97.3488 83.8182 98.117C83.2393 98.3083 82.6666 98.5146 82.0997 98.737C81.8315 98.8413 81.5484 98.9866 81.2586 99.0274C81.241 99.0297 81.2232 99.032 81.2055 99.033C80.6349 99.0888 80.4893 98.6128 80.7493 98.1675C80.7815 98.1127 80.8148 98.0579 80.8496 98.0053C81.3165 97.2762 81.9472 96.7483 82.5971 96.2021C83.3767 95.9915 84.137 95.6488 84.8911 95.372C86.7528 94.6874 88.6145 94.0028 90.4775 93.3191C90.8426 93.1845 90.608 92.6268 90.2427 92.7604C88.8285 93.2785 87.4143 93.7964 86 94.3144L83.9303 95.0731C83.5167 95.224 83.0095 95.4858 82.5175 95.6201C82.2748 95.6861 82.0358 95.7214 81.813 95.6987C81.093 95.6233 80.945 94.7548 81.1794 94.1972C81.4419 93.571 82.0328 93.1243 82.5563 92.7213C83.4635 92.0219 84.4544 91.4755 85.4129 90.8693C85.5888 90.8062 85.7647 90.7431 85.9405 90.68C86.9635 90.3124 88.1518 90.0435 89.088 89.4908C89.3686 89.3265 89.1459 88.8795 88.8533 88.924C88.0862 89.04 87.317 89.4174 86.5863 89.6766C85.7958 89.9582 85.0039 90.2388 84.2132 90.5192C84.1338 90.5474 83.6704 90.7643 83.5931 90.7395C83.5439 90.7234 83.5066 90.5646 83.4774 90.4605C83.3827 90.1182 83.2991 89.7566 83.308 89.3996C83.3259 88.5996 83.9328 88.1465 84.5561 87.7597C85.944 86.8995 87.5067 86.2716 89.0942 85.896C89.46 85.8096 89.8277 85.7375 90.1991 85.6771C90.6355 85.6074 90.9865 85.4835 91.264 85.8864C91.7005 86.5212 92.0054 87.3706 92.2203 88.1317ZM93.3539 113.044C92.8892 111.975 92.8235 110.777 92.4571 109.672C92.2681 109.102 92.0382 108.542 91.7952 107.993C91.5991 107.55 91.3079 107.089 91.2199 106.611C91.2143 106.579 91.2497 106.555 91.2777 106.567C91.7644 106.768 92.185 107.284 92.5003 107.691C92.8777 108.178 93.1852 108.7 93.4507 109.255C93.9798 110.362 94.4716 111.716 94.132 112.944C94.031 113.31 93.5279 113.445 93.3539 113.044ZM81.9014 123.074C81.3795 122.802 80.9704 122.38 80.5112 122.02C80.0596 121.666 80.6032 120.961 81.0549 121.315C81.4467 121.622 81.8042 122.022 82.2486 122.254C82.4624 122.365 82.5852 122.601 82.485 122.838C82.3964 123.046 82.1147 123.185 81.9014 123.074ZM77.5743 110.579C78.3995 110.088 79.2059 109.565 80.0854 109.175C80.6111 108.942 80.9525 109.764 80.4301 109.996C79.62 110.356 78.8782 110.832 78.1183 111.283C77.6304 111.573 77.0832 110.87 77.5743 110.579ZM68.3105 111.505C68.0287 111.005 68.8539 110.668 69.1316 111.16C69.4513 111.727 69.8044 112.275 70.1241 112.842C70.4057 113.341 69.5807 113.679 69.3031 113.186C68.9834 112.619 68.6301 112.072 68.3105 111.505ZM60.5598 123.212C60.442 123.42 60.2179 123.553 59.9763 123.448C59.7739 123.36 59.6206 123.075 59.74 122.865C60.0884 122.249 60.4432 121.64 60.8719 121.077C61.2194 120.62 61.924 121.164 61.5768 121.62C61.1939 122.124 60.8711 122.662 60.5598 123.212ZM51.6311 64.2928C52.0721 64.5172 52.4705 64.8077 52.8614 65.109C53.3158 65.4593 52.7719 66.1641 52.3175 65.8138C51.9882 65.5599 51.6558 65.3019 51.2839 65.1127C51.069 65.0033 50.948 64.7639 51.0476 64.5291C51.1368 64.3188 51.4168 64.1838 51.6311 64.2928ZM66.7184 76.79C66.5485 77.2783 66.4003 77.7547 66.4546 78.2778C66.514 78.8476 65.6311 78.9619 65.5718 78.3917C65.5006 77.7072 65.6759 77.0829 65.8985 76.4427C66.0869 75.9008 66.9059 76.2503 66.7184 76.79ZM70.1085 64.7517C70.5423 64.374 71.0826 65.0822 70.6526 65.4566C70.304 65.76 69.9553 66.0636 69.6067 66.3671C69.1731 66.7446 68.6328 66.0366 69.0627 65.6622C69.4113 65.3587 69.7599 65.0552 70.1085 64.7517ZM51.5915 87.4243C51.5829 87.9959 50.7012 87.8656 50.7097 87.2996C50.723 86.4247 50.7652 85.5577 50.8902 84.6911C50.9721 84.124 51.8537 84.2481 51.7718 84.8159C51.6468 85.6825 51.6047 86.5496 51.5915 87.4243ZM49.8012 97.9374C49.2314 97.9988 49.1173 97.1159 49.6872 97.0545C50.2029 96.9991 50.726 97.0691 51.238 97.1289C51.8076 97.1956 51.6822 98.0772 51.1132 98.0106C50.6803 97.96 50.2372 97.8906 49.8012 97.9374ZM51.2879 118.458C51.1049 118.578 50.9157 118.689 50.73 118.805C50.3581 119.037 49.9865 119.269 49.615 119.501C48.8411 119.985 48.0678 120.47 47.2954 120.956C45.7493 121.929 44.1869 122.877 42.6357 123.843C41.0539 124.828 39.4778 125.822 37.9043 126.821C37.163 127.291 36.414 127.748 35.667 128.209C35.0283 128.603 34.259 129.247 33.5209 129.394C33.483 129.402 33.4639 129.355 33.4825 129.327C33.7226 128.971 34.1473 128.727 34.4902 128.471C34.8404 128.21 35.1993 127.96 35.5561 127.708C36.2999 127.182 37.0451 126.659 37.7985 126.147C39.3056 125.123 40.8165 124.105 42.3279 123.087C43.8693 122.049 45.408 121.006 46.9676 119.996C47.702 119.52 48.4372 119.045 49.173 118.572C49.5717 118.315 49.9706 118.059 50.3695 117.803C50.5418 117.692 50.7114 117.575 50.889 117.473C51.125 117.338 51.3172 117.335 51.5661 117.238C51.9722 117.08 52.2225 117.59 51.9306 117.864C51.6902 118.089 51.5718 118.271 51.2879 118.458ZM46.5623 128.272C46.4433 128.063 46.5984 127.771 46.8005 127.689C47.0426 127.591 47.2633 127.717 47.3834 127.927C47.7014 128.485 48.1159 128.98 48.6186 129.379C49.0679 129.736 48.5245 130.441 48.0749 130.084C47.4449 129.584 46.9591 128.967 46.5623 128.272ZM40.3969 114.659C39.9424 114.309 40.4863 113.604 40.9406 113.954L42.2325 114.951C42.687 115.301 42.143 116.006 41.6888 115.656L40.3969 114.659ZM28.4169 114.309C27.6254 114.656 26.6945 115.002 26.2242 115.776C26.2013 115.814 26.1496 115.776 26.1616 115.74C26.6875 114.159 28.6792 113.371 30.0376 112.665C30.9984 112.166 31.9935 111.727 33.0016 111.319C32.7437 110.142 32.8667 108.829 32.8138 107.632C32.7573 106.353 32.6805 105.074 32.5614 103.8C32.44 102.5 32.2829 101.196 32.0732 99.9073C31.8644 98.6232 31.5326 97.371 31.2934 96.0951C31.2703 95.9718 31.4426 95.9435 31.4931 96.0414C32.0804 97.1782 32.436 98.4755 32.7393 99.7148C33.0518 100.992 33.2667 102.277 33.4163 103.583C33.5701 104.925 33.6647 106.272 33.7301 107.621C33.7611 108.26 33.7839 108.9 33.81 109.54C33.83 110.028 33.8721 110.51 33.834 110.99C34.4434 110.754 35.0552 110.527 35.6656 110.303C37.6121 109.592 39.5711 108.913 41.5044 108.166C42.4535 107.799 43.3824 107.387 44.325 107.006C45.2126 106.646 46.1446 106.23 47.074 106.001C47.4056 105.919 47.5079 106.374 47.3052 106.559C46.6081 107.196 45.6384 107.702 44.7918 108.118C43.9422 108.535 43.0465 108.872 42.1646 109.213C40.3255 109.925 38.4573 110.555 36.5941 111.2C34.7335 111.844 32.8688 112.486 31.0417 113.22C30.1618 113.574 29.2851 113.928 28.4169 114.309ZM20.8604 91.2708C20.4061 91.6229 19.8638 90.9168 20.3164 90.5659C20.9088 90.1071 21.5553 89.7363 22.2083 89.3718C22.7094 89.0921 23.047 89.917 22.5529 90.1929C21.9661 90.5204 21.3926 90.8586 20.8604 91.2708ZM23.314 124.302C22.858 124.652 22.3154 123.946 22.77 123.597C23.4086 123.108 24.13 122.744 24.8001 122.301C25.2768 121.986 25.8221 122.691 25.344 123.006C24.6741 123.449 23.9525 123.813 23.314 124.302ZM20.1102 105.786C20.6452 106.177 21.3087 106.308 21.9391 106.468C22.4888 106.608 22.3696 107.491 21.8143 107.35C21.0289 107.15 20.2329 106.978 19.5665 106.49C19.1029 106.152 19.6478 105.448 20.1102 105.786ZM22.1187 79.8185C22.6691 79.9564 22.5499 80.8396 21.9939 80.7003C21.3773 80.5458 20.7485 80.4488 20.1319 80.2943C19.5816 80.1564 19.7008 79.2734 20.2568 79.4126C20.8734 79.567 21.5021 79.6641 22.1187 79.8185ZM30.123 68.5741C30.6676 68.4084 31.0144 69.2287 30.4676 69.3952C29.7892 69.6018 29.124 69.8269 28.4991 70.1663C27.9944 70.4404 27.6563 69.6158 28.1544 69.3453C28.7795 69.0059 29.4447 68.7807 30.123 68.5741ZM36.3523 92.6321C35.8095 92.447 36.1591 91.6282 36.6994 91.8124C37.2689 92.0065 37.8499 92.1384 38.4502 92.1873C39.0219 92.2341 38.8948 93.1156 38.3254 93.0691C37.6498 93.0138 36.9926 92.8505 36.3523 92.6321ZM37.4769 78.4829C38.0071 78.2615 38.3494 79.0834 37.8215 79.3041C36.8927 79.6921 35.919 79.9573 34.9793 80.3172C34.4438 80.5223 34.1 79.7009 34.6347 79.4962C35.5743 79.1361 36.5482 78.8712 37.4769 78.4829ZM49.2317 72.5712C49.8039 72.6025 49.6756 73.484 49.107 73.453C48.5016 73.4199 47.9023 73.4955 47.3028 73.5725C46.7338 73.6457 46.6208 72.7627 47.1889 72.6896C47.8699 72.602 48.5445 72.5337 49.2317 72.5712ZM89.9835 72.0006C88.5232 72.0488 87.0643 72.1249 85.6068 72.2289C85.5389 72.2342 85.4723 72.2384 85.4044 72.2437C85.3948 72.2293 85.383 72.2161 85.371 72.202C84.8093 71.5699 84.3722 70.9218 83.9698 70.177C83.5854 69.4681 83.2069 68.735 82.6764 68.1191C82.0714 67.4174 81.3108 66.9054 80.4949 66.4819C80.0802 66.8459 79.7049 67.2578 79.3682 67.6866C79.0139 68.1377 78.3089 67.5941 78.6633 67.1428C78.9625 66.7618 79.2881 66.4035 79.6384 66.0725C79.157 65.8588 78.6686 65.6627 78.1916 65.4664C76.4035 64.7312 74.5851 64.0727 72.741 63.494C71.8837 63.2242 71.022 62.9977 70.1541 62.7675C69.687 62.6439 69.2189 62.4674 68.7482 62.3151C68.7397 61.9974 68.6006 61.6586 68.3334 61.4833C68.1362 61.355 67.991 61.3165 67.7653 61.2369C67.7157 61.2264 67.6857 61.2202 67.6717 61.2163C67.6819 61.2173 67.7118 61.2224 67.7611 61.2317C67.8805 61.2692 67.8873 61.2525 67.7819 61.1831C67.7533 61.0051 67.3524 60.6731 67.2482 60.4992C66.8862 59.9029 66.7127 59.2453 66.2245 58.7227C65.5515 58.0028 64.5548 57.8263 63.6966 58.2108C63.4808 57.2681 63.3279 56.2748 62.8582 55.4691C62.8453 55.4473 62.812 55.4414 62.8009 55.4686C62.5082 56.1562 62.568 56.872 62.6345 57.6129C62.6962 58.3085 62.8139 59.0125 62.9932 59.6884C62.9415 59.7399 62.8885 59.7895 62.833 59.8381C62.5725 60.0624 62.2844 60.2466 61.9759 60.3954C61.3885 60.6775 60.7565 60.8488 60.1171 60.9628C58.4664 61.2566 56.733 61.3098 55.0629 61.2359C53.3736 61.1611 50.7849 61.0553 49.2082 60.4184C48.1676 59.9986 47.1868 59.4485 46.1963 58.9211C46.3886 57.8191 46.3255 56.6694 45.8789 55.8171C45.8253 55.7151 45.655 55.7169 45.6394 55.848C45.5421 56.729 45.5923 57.5954 45.4253 58.4753C45.4225 58.488 45.4198 58.5019 45.4169 58.5145C45.3233 58.4673 45.2298 58.4209 45.1363 58.3746C44.9207 58.2689 44.663 58.4021 44.568 58.605C43.0495 61.854 40.0534 62.4157 36.9531 63.3613C33.56 64.396 30.1555 65.4794 26.9687 67.0587C23.9211 68.5697 21.0794 70.5634 18.9732 73.2655C18.4964 73.8773 18.0596 74.5199 17.6548 75.1842C18.1293 75.1828 18.6041 75.2146 19.0796 75.2992C19.6426 75.3993 19.5201 76.2815 18.9547 76.1808C18.3436 76.0721 17.7379 76.0575 17.1321 76.0895C15.7811 78.5458 14.8302 81.256 14.0473 83.9039C12.5452 88.9808 11.8242 94.2742 11.8608 99.5639C12.1828 99.3097 12.5123 99.0647 12.8525 98.8324C13.3252 98.5098 13.8697 99.2142 13.3965 99.5372C12.871 99.8959 12.3654 100.282 11.8803 100.692C11.9433 103.001 12.1497 105.307 12.4997 107.591C13.3336 113.035 14.7963 118.56 17.1363 123.555C18.2841 126.007 19.6952 128.403 21.5887 130.356C22.4456 131.24 23.3895 132.016 24.4623 132.626C24.9819 132.922 25.5242 133.177 26.0876 133.378C26.8135 133.639 27.7156 133.639 28.3664 134.056C28.5805 134.194 28.7571 134.389 28.9009 134.616C28.895 135.083 28.9467 135.544 29.1318 135.987C29.19 136.126 29.3133 136.229 29.4541 136.268C29.4614 136.307 29.4664 136.346 29.4712 136.383C29.4735 136.401 29.5006 136.402 29.5016 136.384C29.5027 136.349 29.5038 136.314 29.5048 136.278C29.5497 136.287 29.5958 136.288 29.6421 136.282C31.3194 136.072 32.9926 135.814 34.6638 135.541C34.4827 135.16 34.2913 134.784 34.105 134.403C33.8519 133.887 34.6753 133.547 34.926 134.059C35.1439 134.503 35.3685 134.943 35.5756 135.39C37.3656 135.091 39.1532 134.779 40.9404 134.488C44.7414 133.868 48.5524 133.334 52.3604 132.761C58.2741 131.87 64.2139 130.841 70.1854 130.326C70.3346 129.864 70.5095 129.408 70.672 128.95C70.8636 128.41 71.6828 128.759 71.4919 129.298C71.3789 129.616 71.26 129.931 71.1494 130.249C72.3603 130.156 73.5726 130.083 74.7862 130.041C76.8571 129.969 78.9275 130.049 80.9988 129.997C83.1047 129.945 85.1327 129.644 87.15 129.035C87.5128 128.925 87.7024 128.673 87.757 128.383C87.7601 128.381 87.7621 128.379 87.7638 128.375C87.8538 128.238 87.94 128.122 88.0309 128.02C88.1433 127.925 88.2671 127.84 88.415 127.76C88.691 127.613 88.9847 127.506 89.2857 127.421C89.6168 127.327 89.9584 127.278 90.2907 127.193C90.5706 127.12 90.8418 127.03 91.1113 126.928C91.596 126.744 92.0504 126.527 92.4961 126.26C92.8846 126.027 93.2231 125.721 93.5378 125.394C94.1955 124.769 94.737 124.01 95.1958 123.235C95.4627 122.782 95.7089 122.316 95.9252 121.836C96.3025 121.004 96.6054 120.152 96.9118 119.292C97.03 119.034 97.1343 118.772 97.2263 118.505C96.3935 118.373 95.5586 118.285 94.7062 118.381C94.1365 118.445 94.0226 117.562 94.5923 117.498C95.5698 117.387 96.5219 117.496 97.4738 117.649C97.5032 117.525 97.5305 117.4 97.5545 117.274C97.6312 117.007 97.6882 116.736 97.7294 116.463C97.758 116.339 97.7869 116.214 97.8156 116.089C97.8617 115.663 97.9076 115.237 97.9546 114.81C98.0689 114.122 98.1399 113.429 98.168 112.733C98.2073 112.273 98.224 111.812 98.2159 111.348C98.2275 110.221 98.2107 109.1 98.0751 107.98C97.9728 107.292 97.8398 106.609 97.6763 105.934C97.5842 105.472 97.4703 105.015 97.3381 104.565C97.1548 103.893 96.9736 103.227 96.7286 102.572C96.5515 102.13 96.3745 101.689 96.1974 101.247C95.7798 100.333 95.3117 99.4438 94.7931 98.5829C94.7638 98.5284 94.636 98.4169 94.5686 98.4245C94.5177 98.4299 94.4529 98.4854 94.4841 98.5443C94.4871 98.5494 94.4901 98.5558 94.4931 98.561C94.4632 98.5121 94.4343 98.462 94.4045 98.4131C94.3783 98.3671 94.2885 98.2801 94.2291 98.2889C94.2258 98.2893 94.2224 98.2897 94.2182 98.2913C94.2322 98.2784 94.2447 98.2621 94.2569 98.2438C94.5926 97.7236 94.7701 97.0734 94.9837 96.4938C95.1609 96.0154 95.3218 95.5144 95.3204 94.9996C95.3192 94.5477 95.1866 94.1192 94.8609 93.7955C94.4902 93.4271 93.8673 93.3122 94.1231 92.6778C94.4137 91.9559 94.8935 91.3004 94.2418 90.607C93.9101 90.2537 93.4366 90.0973 93.0618 89.8011C92.6305 89.4584 92.3817 88.9576 92.3227 88.421C92.3476 88.4313 92.3776 88.4208 92.3844 88.3861C92.5797 87.378 92.2109 86.3464 91.7616 85.4472C91.5169 84.9594 91.1201 84.868 90.6766 84.8995C92.1028 80.9287 93.399 76.9139 94.4897 72.8371C94.5263 72.7034 94.5618 72.5699 94.5972 72.4362C94.65 72.2364 94.4541 72.0048 94.26 71.9871C92.846 71.8633 91.4011 71.9522 89.9835 72.0006Z" fill="black"/>
<path fill-rule="evenodd" clip-rule="evenodd" d="M71.1454 29.5502C69.8412 22.7394 66.6091 15.244 59.6181 12.7197C44.4165 8.78466 27.2991 25.8444 28.219 40.8966C28.5276 46.0499 32.084 51.2654 37.4501 52.0166C38.7994 53.3946 40.6624 54.102 42.4868 54.6892C64.3449 62.6738 76.463 52.3259 71.1454 29.5502Z" fill="white"/>
<path fill-rule="evenodd" clip-rule="evenodd" d="M75.2612 24.6777C74.2777 22.7604 73.2553 20.8637 72.1952 18.9877C71.163 17.1619 70.2011 15.2846 68.9911 13.5746C61.7645 3.36128 51.1961 4.72528 45.9181 6.86286C42.9275 6.0079 37.6657 7.03706 34.8579 8.51924C30.3124 10.9187 25.3963 18.6845 23.8126 22.0929C20.3162 29.6183 18.769 39.2336 22.7258 46.8974C23.243 47.899 23.8552 48.8095 24.5241 49.6768C24.2393 50.1891 23.8993 50.6833 23.5155 51.1754C22.3749 52.6378 21.2288 54.0576 20.2875 55.6625C19.3522 57.2575 18.6206 58.9195 18.1473 60.7091C17.2549 64.0839 17.6605 67.7225 19.7823 70.559C21.6284 73.027 24.5458 74.6657 27.5689 74.4678C27.7256 74.4693 27.8823 74.469 28.0392 74.4646C28.5209 75.0678 29.0832 75.6078 29.7039 76.0618C31.6059 77.4545 35.7508 77.7599 38.0609 77.5156C38.1912 77.5953 38.3227 77.6748 38.454 77.7532C40.0065 78.6805 41.6297 79.6087 43.3495 80.1889C44.5145 80.5828 46.0091 80.8443 47.1026 80.3104C47.666 80.59 48.5075 80.4074 48.9852 80.0574C49.7705 79.4825 50.3498 78.555 50.6572 77.6424C51.4024 75.4268 50.8641 73.1771 50.3162 70.9836C49.7117 68.5606 49.1182 66.1351 48.5204 63.7113C48.0525 61.8161 47.5705 59.8901 46.7464 58.1126C46.3201 57.1914 45.8048 56.3199 45.1808 55.5186C45.1846 55.444 45.173 55.3715 45.1432 55.3058C44.9051 54.7822 44.5217 54.5411 44.0633 54.2233C44.0042 54.1827 43.9449 54.1409 43.8867 54.098C43.6512 53.8905 43.4035 53.7014 43.1446 53.5475C43.0423 53.4675 42.941 53.3864 42.8396 53.3052C41.9964 52.623 41.189 51.8958 40.4523 51.1C39.7379 50.3283 39.0771 49.5115 38.4406 48.6747C37.7933 47.8236 37.3126 46.8545 36.6672 46.0099C36.6119 45.9374 36.4951 45.9368 36.4395 46.0101C36.2979 46.2001 36.2173 46.4012 36.2627 46.5962L36.1826 46.6189C36.1132 46.3249 35.8071 46.1176 35.4425 46.2308C34.8966 46.4 34.4422 46.4957 33.9348 46.3727C33.947 45.7978 33.9525 45.2226 33.9566 44.6465C33.9634 43.5864 33.9599 42.5243 33.9376 41.4646C34.2186 41.4946 34.5011 41.5535 34.7813 41.6385C35.1805 41.7586 35.5664 41.94 35.907 42.1799C36.2428 42.417 36.4983 42.7622 36.8895 42.9069C37.3394 43.0721 37.8013 42.6434 37.6162 42.1826C37.2413 41.2514 35.7519 40.8827 34.851 40.8138C34.5416 40.7898 34.2303 40.803 33.9232 40.8494C33.9062 40.1694 33.8814 39.4904 33.8454 38.8118C33.8286 38.4908 33.8097 38.1701 33.7895 37.8485C34.4449 37.554 35.1675 37.3979 35.8897 37.4035C36.1477 37.5598 36.4055 37.7139 36.6558 37.8712C37.4509 38.3722 38.2431 38.877 39.0279 39.3939C39.0989 39.4398 39.1688 39.4857 39.2399 39.5326C39.7059 39.8394 40.1828 39.4143 40.0462 38.9124C38.9297 34.7996 41.0647 31.1379 43.7346 28.17C46.69 24.8837 52.6905 23.771 56.0049 18.3115C57.8734 18.4471 62.0804 19.023 64.1029 21.4795C66.9348 24.9221 67.0612 28.3178 67.7884 32.5437C68.516 36.7729 69.5431 41.1497 69.1186 45.467C68.7269 49.4479 66.7418 53.0623 63.1965 55.0638C63.1087 55.1133 63.0196 55.1618 62.9303 55.2092C61.0898 56.1884 59.0052 56.6673 56.9206 56.5459C54.6131 56.4106 52.5995 55.6225 50.5619 54.5963C50.4444 54.5385 50.3057 54.7068 50.4013 54.8044C53.2937 57.759 58.2864 58.2265 62.0232 56.8657C62.1979 56.8016 62.3709 56.7344 62.5424 56.6629C62.001 59.2495 62.525 61.9442 63.9574 64.2098C64.8188 65.5729 66.0094 66.695 67.3897 67.5233C68.9111 68.4355 70.7376 69.0951 71.8931 70.5022C72.9515 71.7917 72.8945 73.4013 71.497 74.4052C71.145 74.6593 71.0849 75.3414 71.4977 75.5843C71.6554 75.6762 71.8134 75.7702 71.9745 75.8616C72.8973 76.3877 75.361 77.2815 75.7409 77.2773C79.1136 77.2426 81.0326 74.5153 82.0926 71.4534C83.3376 67.8594 82.3694 63.8003 80.1025 60.8234C78.284 58.4348 75.0301 56.2697 75.7718 52.8539C76.0362 51.6338 76.7566 50.5299 77.465 49.5252C78.2733 48.3808 79.1606 47.2923 79.9255 46.1165C80.6859 44.9491 81.3328 43.7021 81.6061 42.3249C82.0049 40.3121 81.4135 38.2679 80.6782 36.4048C79.1017 32.4053 77.2211 28.501 75.2612 24.6777Z" fill="black"/>
</svg>
